<svg height="417pt" viewBox="-45 0 417 417" width="417pt" xmlns="http://www.w3.org/2000/svg"><path d="m298.398438 62.800781c15.464843 0 28 12.535157 28 28 0 15.464844-12.535157 28-28 28h-270.398438c-15.464844 0-28-12.535156-28-28 0-15.464843 12.535156-28 28-28zm0 0" fill="#00ACEA"/><path d="m297.800781 119.199219v254.800781c0 25.089844-17.910156 43-40 43h-189.199219c-22.089843 0-40-17.910156-40-43v-255.199219h269.199219zm0 0" fill="#5FD4B1"/><g fill="#00ACEA"><path d="m247.601562 62.398438h-20v-22.398438c-.015624-11.039062-8.960937-19.988281-20-20h-88.800781c-11.042969.011719-19.988281 8.960938-20 20v22.398438h-20v-22.398438c.023438-22.082031 17.917969-39.9765625 40-40h88.800781c22.078126.0234375 39.972657 17.917969 40 40zm0 0"/><path d="m222.601562 364.199219c-5.523437 0-10-4.476563-10-10v-189c0-5.523438 4.476563-10 10-10 5.519532 0 10 4.476562 10 10v189c0 5.523437-4.480468 10-10 10zm0 0"/><path d="m103.800781 364.199219c-5.523437 0-10-4.476563-10-10v-189c0-5.523438 4.476563-10 10-10 5.523438 0 10 4.476562 10 10v189c0 5.523437-4.476562 10-10 10zm0 0"/><path d="m163.199219 364.199219c-5.523438 0-10-4.476563-10-10v-189c0-5.523438 4.476562-10 10-10 5.523437 0 10 4.476562 10 10v189c0 5.523437-4.476563 10-10 10zm0 0"/></g></svg>